<svg version="1.2" xmlns="http://www.w3.org/2000/svg" viewBox="0 0 500 61" width="500" height="61">
	<title>IMAGE (1)</title>
	<defs>
		<clipPath clipPathUnits="userSpaceOnUse" id="cp1">
			<path d="m166.23 15.67h23.1v39.13h-23.1z"/>
		</clipPath>
		<clipPath clipPathUnits="userSpaceOnUse" id="cp2">
			<path d="m198.67 13h7.56v41.8h-7.56z"/>
		</clipPath>
		<clipPath clipPathUnits="userSpaceOnUse" id="cp3">
			<path d="m180 53h21.33v1.8h-21.33z"/>
		</clipPath>
		<clipPath clipPathUnits="userSpaceOnUse" id="cp4">
			<path d="m174.67 9.8h29.33v5.87h-29.33z"/>
		</clipPath>
	</defs>
	<style>
		.s0 { fill: #536b72 } 
		.s1 { fill: #40a8a7 } 
		.s2 { fill: #e47864 } 
	</style>
	<g id="5059f4cf4d">
		<g id="Clip-Path" clip-path="url(#cp1)">
			<g>
				<path class="s0" d="m173.6 38.3v2.8c0 0.4 0.3 0.7 0.7 0.7h0.4l-0.6 9.4c0 1 0.3 1.9 0.9 2.5 0.7 0.7 1.5 1.1 2.5 1.1 0.9 0 1.8-0.4 2.4-1.1 0.7-0.6 1-1.5 1-2.5l-0.6-9.4h0.4c0.3 0 0.7-0.3 0.7-0.7v-2.8c4.2-1.6 7.3-5.7 7.3-10.6 0-6.2-5-11.2-11.2-11.2-6.2 0-11.3 5-11.3 11.2 0 4.9 3.1 9 7.4 10.6zm5.3 14.5q-0.6 0.6-1.4 0.6-0.9 0-1.5-0.6c-0.3-0.4-0.5-0.9-0.5-1.4l0.6-9.6h2.8l0.6 9.5c0 0.6-0.2 1.1-0.6 1.5zm1-12.4h-4.9v-1.7q1.2 0.3 2.5 0.3 1.2 0 2.4-0.3zm-2.4-22.5c5.4 0 9.8 4.4 9.8 9.8 0 5.5-4.4 9.9-9.8 9.9-5.4 0-9.9-4.4-9.9-9.9 0-5.4 4.5-9.8 9.9-9.8z"/>
			</g>
		</g>
		<g id="Clip-Path" clip-path="url(#cp2)">
			<g>
				<path class="s0" d="m200 16.1v29.4l2.1 8.7c0.1 0.4 0.3 0.6 0.7 0.6 0.3 0 0.6-0.2 0.7-0.6l2.1-8.7v-29.4c0-1.1-0.9-2.1-2.1-2.1h-1.4c-1.2 0-2.1 1-2.1 2.1zm2.8 34.4l-1.3-4.5h2.5zm1.4-5.9h-2.8v-26.4h2.8zm0-28.4v0.7h-2.8v-0.7c0-0.4 0.3-0.7 0.7-0.7h1.4c0.4 0 0.7 0.3 0.7 0.7z"/>
			</g>
		</g>
		<path class="s0" d="m178.2 51.3q0 0.3-0.2 0.5-0.2 0.2-0.5 0.2-0.3 0-0.5-0.2-0.2-0.2-0.2-0.5 0-0.3 0.2-0.5 0.2-0.2 0.5-0.2 0.3 0 0.5 0.2 0.2 0.2 0.2 0.5z"/>
		<g id="Clip-Path" clip-path="url(#cp3)">
			<g>
				<path class="s0" d="m181 54.7l-0.1 0.1h19.9c0-0.1 0-0.2 0-0.3l-0.3-1.1h-18.7c-0.2 0.5-0.5 0.9-0.8 1.3z"/>
			</g>
		</g>
		<g id="Clip-Path" clip-path="url(#cp4)">
			<g>
				<path class="s0" d="m176.4 11.9c0-0.4 0.3-0.7 0.7-0.7h23.6c0.4 0 0.7 0.3 0.7 0.7v0.8q0.3-0.1 0.7-0.1h0.7v-0.7c0-1.1-1-2.1-2.1-2.1h-23.6c-1.1 0-2.1 1-2.1 2.1v3.4c0.5-0.1 0.9-0.1 1.4-0.2z"/>
			</g>
		</g>
		<path class="s0" d="m181.6 35.1h-1.7c-0.3 0-0.7 0.3-0.7 0.7 0 0.1 0 0.1 0.1 0.2q1.2-0.3 2.3-0.9z"/>
		<path class="s0" d="m179.9 33h4.2c0.3-0.4 0.6-0.9 0.9-1.4h-5.1c-0.3 0-0.7 0.3-0.7 0.7 0 0.4 0.4 0.7 0.7 0.7z"/>
		<path class="s0" d="m179.9 29.5h5.8c0.2-0.5 0.2-0.9 0.2-1.4h-6c-0.3 0-0.7 0.3-0.7 0.7 0 0.4 0.4 0.7 0.7 0.7z"/>
		<path class="s0" d="m179.9 26h5.8q-0.1-0.8-0.4-1.4h-5.4c-0.3 0-0.7 0.3-0.7 0.7 0 0.4 0.4 0.7 0.7 0.7z"/>
		<path class="s0" d="m179.9 22.5h4.2q-0.7-0.8-1.5-1.4h-2.7c-0.3 0-0.7 0.3-0.7 0.7 0 0.3 0.4 0.7 0.7 0.7z"/>
		<path class="s0" d="m176.4 19.4q-0.7 0.1-1.4 0.2v16.2q0.7 0.2 1.4 0.3z"/>
		<path class="s0" d="m197.9 45.7h-15.9l0.1 1.4h15.8c0.4 0 0.7-0.4 0.7-0.7 0-0.4-0.3-0.7-0.7-0.7z"/>
		<path class="s0" d="m181.8 42.8l0.1 0.8h16c0.4 0 0.7-0.4 0.7-0.8 0-0.3-0.3-0.7-0.7-0.7h-15.4q-0.3 0.5-0.7 0.7z"/>
		<path class="s0" d="m182.8 39.2v0.8h15.1c0.4 0 0.7-0.3 0.7-0.7 0-0.4-0.3-0.7-0.7-0.7h-14q-0.6 0.4-1.1 0.6z"/>
		<path class="s0" d="m186.6 36.5h11.3c0.4 0 0.7-0.3 0.7-0.7 0-0.4-0.3-0.7-0.7-0.7h-10.1q-0.6 0.7-1.2 1.4z"/>
		<path class="s0" d="m197.9 31.6h-8.4q-0.2 0.7-0.5 1.4h8.9c0.4 0 0.7-0.3 0.7-0.7 0-0.4-0.3-0.7-0.7-0.7z"/>
		<path class="s0" d="m197.9 28.1h-7.8c0 0.4 0 0.9-0.1 1.4h7.9c0.4 0 0.7-0.3 0.7-0.7 0-0.4-0.3-0.7-0.7-0.7z"/>
		<path class="s0" d="m197.9 24.6h-8.1q0.1 0.6 0.2 1.4h7.9c0.4 0 0.7-0.3 0.7-0.7 0-0.4-0.3-0.7-0.7-0.7z"/>
		<path class="s0" d="m197.9 22.5c0.4 0 0.7-0.4 0.7-0.7 0-0.4-0.3-0.7-0.7-0.7h-9.7q0.5 0.6 0.8 1.4z"/>
		<path class="s0" d="m198.6 18.2c0-0.3-0.3-0.7-0.7-0.7h-12.9c0.5 0.5 1.1 0.9 1.6 1.4h11.3c0.4 0 0.7-0.3 0.7-0.7z"/>
		<g>
			<g>
				<path class="s1" d="m9.5 45.3v-30h9.6v30z"/>
			</g>
		</g>
		<g>
			<g>
				<path class="s1" d="m51.8 45.3v-10.8q0-2 0.2-4.1 0.1-2.2 0.3-3.6 0.2-1.4 0.2-1.8h-0.1l-5.6 20.3h-7.5l-5.6-20.3h-0.2q0 0.4 0.2 1.8 0.2 1.4 0.4 3.6 0.2 2.1 0.2 4.1v10.8h-8.9v-30h13.6l4.6 17.3h0.2l4.5-17.3h13.1v30z"/>
			</g>
		</g>
		<g>
			<g>
				<path class="s1" d="m87.4 45.3l-1.3-4.2h-10.5l-1.3 4.2h-9.8l10.9-30h11.2l11 30zm-9.8-10.9h6.6l-3.2-10.7h-0.2z"/>
			</g>
		</g>
		<g>
			<g>
				<path class="s1" d="m115.6 14.7q4.3 0 7.7 1.3 3.5 1.4 5.5 3.9 2.1 2.6 2.1 6.2h-9.3q0-1.8-1.6-3-1.7-1.2-4-1.2-3.4 0-5.2 1.9-1.7 1.8-1.7 5.1v2.8q0 3.3 1.7 5.1 1.8 1.8 5.2 1.8 2.3 0 4-1.1 1.6-1.1 1.6-2.8h-6.8v-6.2h16.1v16.8h-5l-1-3q-4.1 3.5-10.7 3.5-7.5 0-11.3-3.9-3.7-3.9-3.7-11.6 0-7.6 4.2-11.6 4.3-4 12.2-4z"/>
			</g>
		</g>
		<g>
			<g>
				<path class="s1" d="m136.8 15.3h26v7.2h-16.3v4.1h14v6.9h-14v4.6h16.7v7.2h-26.4z"/>
			</g>
		</g>
		<g>
			<g>
				<path class="s1" d=""/>
			</g>
		</g>
		<g>
			<g>
				<path class="s2" d="m225.8 16.2q15.8 0 15.8 15 0 15-15.8 15h-13v-30zm-3.4 22.8h3.2q6.1 0 6.1-6.5v-2.6q0-6.5-6.1-6.5h-3.2z"/>
			</g>
		</g>
		<g>
			<g>
				<path class="s2" d="m246.8 16.2h25.9v7.2h-16.3v4.2h14v6.9h-14v4.5h16.7v7.2h-26.3z"/>
			</g>
		</g>
		<g>
			<g>
				<path class="s2" d="m290.9 15.7q5.8 0 9.5 2.3 3.7 2.4 3.8 6.9v0.6h-9.1v-0.2q0-1.3-0.9-2.2-1-0.9-2.9-0.9-2 0-3 0.6-1 0.6-1 1.4 0 1.2 1.4 1.8 1.4 0.5 4.5 1.1 3.6 0.8 5.9 1.6 2.4 0.8 4.1 2.6 1.8 1.8 1.8 5 0 5.3-3.6 7.9-3.6 2.6-9.6 2.6-7.1 0-11-2.4-3.9-2.3-3.9-8.3h9.2q0 2.3 1.1 3 1.2 0.8 3.7 0.8 1.8 0 3-0.4 1.2-0.4 1.2-1.6 0-1.1-1.3-1.7-1.3-0.5-4.3-1.1-3.7-0.8-6.1-1.7-2.4-0.8-4.2-2.8-1.8-2-1.8-5.3 0-4.9 3.8-7.3 3.9-2.3 9.7-2.3z"/>
			</g>
		</g>
		<g>
			<g>
				<path class="s2" d="m324.2 15.7q6.6 0 10.5 3.3 3.9 3.4 3.9 9.6h-9.2q0-2.7-1.4-4.2-1.4-1.5-3.9-1.5-2.9 0-4.3 1.8-1.4 1.9-1.4 5.1v2.8q0 3.3 1.4 5.1 1.4 1.9 4.2 1.9 2.8 0 4.2-1.5 1.5-1.4 1.5-4h8.9q0 6.1-3.8 9.4-3.8 3.3-10.6 3.3-7.7 0-11.7-3.9-4-4-3.9-11.7-0.1-7.7 3.9-11.6 4-3.9 11.7-3.9z"/>
			</g>
		</g>
		<g>
			<g>
				<path class="s2" d="m372.3 25.4q0 2.8-1.5 5-1.5 2.2-4.3 3.3l6.7 12.5h-10.8l-5.4-10.9h-3.6v10.9h-9.6v-30h18.4q3.2 0 5.5 1.3 2.3 1.2 3.5 3.3 1.1 2.1 1.1 4.6zm-9.8 0.4q0-1.2-0.8-1.9-0.8-0.8-1.9-0.8h-6.4v5.5h6.4q1.1 0 1.9-0.8 0.8-0.8 0.8-2z"/>
			</g>
		</g>
		<g>
			<g>
				<path class="s2" d="m378.2 46.2v-30h9.7v30z"/>
			</g>
		</g>
		<g>
			<g>
				<path class="s2" d="m414.8 16.2q2.2 0 4.1 0.9 1.9 1 3 2.7 1.2 1.7 1.2 3.8 0 5.5-5.1 7v0.1q5.8 1.4 5.8 7.5 0 2.4-1.2 4.2-1.2 1.8-3.2 2.8-2 1-4.4 1h-20.2v-30zm-10.4 11.7h6.7q0.9 0 1.5-0.7 0.7-0.6 0.7-1.7v-0.4q0-1-0.7-1.6-0.6-0.7-1.5-0.7h-6.7zm0 11.3h7.3q1 0 1.6-0.6 0.7-0.7 0.7-1.7v-0.5q0-1-0.7-1.6-0.6-0.7-1.6-0.7h-7.3z"/>
			</g>
		</g>
		<g>
			<g>
				<path class="s2" d="m428.7 16.2h26v7.2h-16.3v4.2h14v6.9h-14v4.5h16.6v7.2h-26.3z"/>
			</g>
		</g>
		<g>
			<g>
				<path class="s2" d="m488.8 25.4q0 2.8-1.5 5-1.5 2.2-4.3 3.3l6.7 12.5h-10.9l-5.3-10.9h-3.6v10.9h-9.6v-30h18.4q3.2 0 5.5 1.3 2.3 1.2 3.4 3.3 1.2 2.1 1.2 4.6zm-9.8 0.4q0-1.2-0.8-1.9-0.8-0.8-2-0.8h-6.3v5.5h6.3q1.2 0 2-0.8 0.8-0.8 0.8-2z"/>
			</g>
		</g>
	</g>
</svg>